<svg xmlns="http://www.w3.org/2000/svg" viewBox="0 0 512 512">
  <defs>
    <linearGradient id="g" x1="0" x2="1" y1="0" y2="1">
      <stop offset="0" stop-color="#feda75"/>
      <stop offset="0.25" stop-color="#fa7e1e"/>
      <stop offset="0.5" stop-color="#d62976"/>
      <stop offset="0.75" stop-color="#962fbf"/>
      <stop offset="1" stop-color="#4f5bd5"/>
    </linearGradient>
  </defs>
  <rect width="512" height="512" rx="100" fill="url(#g)"/>
  <g transform="translate(64 64) scale(0.75)" fill="#fff">
    <path d="M160 96c-35.3 0-64 28.7-64 64s28.7 64 64 64 64-28.7 64-64-28.7-64-64-64zm0 96c-17.7 0-32-14.3-32-32s14.3-32 32-32 32 14.3 32 32-14.3 32-32 32z"/>
    <path d="M336 48c0 26.5-21.5 48-48 48h-8c-8.8 0-16 7.2-16 16v8c0 26.5-21.5 48-48 48h-64c-26.5 0-48-21.5-48-48v-8c0-8.8-7.2-16-16-16h-8c-26.5 0-48-21.5-48-48V48c0-26.5 21.5-48 48-48h232c26.5 0 48 21.5 48 48v0z"/>
  </g>
</svg>