<svg xmlns="http://www.w3.org/2000/svg" viewBox="0 0 512 512">
  <rect width="512" height="512" rx="80" fill="#25D366"/>
  <g transform="translate(64 64) scale(0.75)" fill="#fff">
    <path d="M220 40c-99.8 0-180.6 80.8-180.6 180.6 0 32.2 8.7 63.9 25 91.6L64 448l137.4-44.4c25.9 14.2 55.5 21.8 85.6 21.8 99.8 0 180.6-80.8 180.6-180.6S319.8 40 220 40zm0 320c-23.1 0-45.5-5.1-65.7-14.8l-4.7-2.4-81 26.2 26.8-79.8-2.9-4.8C78.3 268.7 72 245.7 72 220 72 146.4 126.4 92 200 92s128 54.4 128 128-54.4 128-128 128z"/>
    <path d="M167.5 181.9c-4.8-2.4-9.8-1.7-13.4.8-12.8 9.8-24.1 22.5-27.1 28.5-2.8 5.6-8.2 19.5 18 38.1 26.2 18.6 49 48.6 79.2 66.1 30.1 17.5 42.6 5.3 47.1.6 4.5-4.7 18.2-17.9 22.7-24.4 4.4-6.5 1.6-10.1-3.5-12.9-3.6-1.9-13.7-5.5-20-7.1-6.3-1.6-9.9-2.4-14.3 2.4-4.5 4.8-17.2 17.7-21 21.3-3.8 3.6-7.7 4-13 1.4-35-16.4-61-44.4-85.8-83.1-6.2-9.6 6.2-8.9 17.6-29.5 1.9-3.6.9-6.7-1.7-9.1z"/>
  </g>
</svg>